<svg version="1" xmlns="http://www.w3.org/2000/svg" width="346.667" height="346.667" viewBox="0 0 260.000000 260.000000"><path d="M118 .6C85.4 4.8 60.1 16.8 38.5 38.5 19.9 57.1 8.4 78.3 2.9 104.3c-3.1 14.5-3.1 37.1-.1 51.4 11.2 52.1 49.8 90.6 102.4 101.9 11.7 2.6 38 2.5 49.7 0 27.3-5.9 47.4-16.7 66.7-36 19.4-19.5 30.3-40 36.1-67.6 2.4-11.8 2.4-36.3 0-48-11.2-53.1-50.1-92.5-102-103.1-9.8-2-30.2-3.2-37.7-2.3zM152.8 28c33.8 8.2 60.4 33.5 70.9 67.7 2.5 8.2 2.7 10.1 2.7 26.8 0 16.8-.2 18.6-2.7 26.9-10.3 33.4-35.9 58.2-69.2 67.3-13.5 3.7-33.4 3.9-46.8.5-35.4-8.9-62.3-35.1-71.9-70.3-2-7.1-2.3-10.8-2.3-24.4 0-13.6.3-17.3 2.3-24.4 8.5-31 30.4-55.2 60.7-66.9 4.6-1.8 15.9-4.5 23-5.6 6.3-.9 25.3.4 33.3 2.4z"/><path d="M117.8 32.1c-21.4 3.1-41.1 13.5-55.2 29.1C47 78.4 39 99.2 39 122.5c0 23.7 8.3 45.2 23.8 61.7 17.4 18.5 37.5 28 61.8 29.5 25.5 1.5 48.9-6.9 67.2-24.1 13.1-12.5 20.2-23.7 25.7-40.6 3.7-11.4 4.7-32.6 2-44.6C212.4 72 190 46.5 159 35.8c-11.5-4-28.8-5.5-41.2-3.7zm29 6.5c32.2 6.6 57.7 30.8 66.3 62.9 1.7 6.2 2.2 10.9 2.2 21s-.5 14.8-2.2 21c-15.5 57.7-81.3 82.9-130.8 49.9-26.1-17.4-41-49.2-37.3-79.9 3.8-32.3 23.2-57.8 53.3-70.4 14.5-6 33-7.7 48.5-4.5z"/><path d="M123.5 74.9c-1.1.2-2.9 1-4.2 1.8-1.8 1.2-4.1 1.4-10.6.9-4.5-.4-11.9-.7-16.5-.8-7 0-8.5.2-9.7 1.8-.7 1-1 2.3-.7 2.9.4.5.8 6.8.9 14 .2 14 .8 22.4 1.9 26.7.4 1.8.2 2.8-.5 2.8s-1.1 2.4-1.1 6.5c0 3.7.4 6.5 1 6.5 1.3 0 1.3 10.3.1 11.5-.5.6-1.1 5.2-1.3 10.2-.4 11.1-1.8 10.3 18.7 10.3 16.6 0 18.8.2 20.6 1.6 1.7 1.2 22.2 1 29.2-.4 2.8-.6 6.6-.6 9.5-.1 5.1 1 11.4.2 9.2-1.1-2.4-1.5 1.3-1.8 5.7-.5l4.3 1.3-.7-19.7c-.3-10.8-.9-19.8-1.2-20.1-.3-.3-.7-3.7-.8-7.5-.1-3.9-.4-8.7-.6-10.8-.2-2.6 0-3.7 1-3.7 2 0 1.9-29.3-.1-31-1-.7-7.1-1.4-16.5-1.7-13.3-.5-15.1-.4-15.1 1 0 2.4-4.2 2.5-6.1.2-1.2-1.4-3.4-2.1-8.1-2.5-3.5-.3-7.2-.3-8.3-.1zm-15 21.7c3.3 2.4 15.2 10.5 26.5 18s21 14.3 21.6 15c.6.8 1.5 1.4 2.1 1.4.5 0 2.8 1.4 5.2 3.2 4.1 3 4.3 3.3 3.9 7.3-.3 2.3-1.7 6.8-3.1 9.9-2.3 4.9-2.9 5.6-5.4 5.6-5.8-.1-10.4-2.7-16.1-9.2-3.1-3.4-7.7-8.4-10.2-10.9-22.8-23.3-40-41.7-40-42.7 0-1.4 5.1-3.1 7.5-2.5 1.1.3 4.7 2.5 8 4.9zm50.4-2.6c2.2 1.9 2.3 2.4 1.6 9-.4 4.2-1.2 7-1.9 7-1.7 0-18.8-13.1-18.1-13.9.9-.8 11.5-3.8 14-3.9 1.1-.1 3.1.7 4.4 1.8zM119 152.7c-.1 1.4-13.3 5.3-15.5 4.7-1.1-.4-3.7-1.8-5.8-3.3-4.5-3.1-4.5-5-.3-14.4l2.7-5.9 9.4 9.1c5.3 5 9.5 9.4 9.5 9.8z"/></svg>